<svg xmlns="http://www.w3.org/2000/svg" viewBox="0 0 379.11 379.11"><defs><style>.cls-1{fill:none;stroke:#231f20;stroke-miterlimit:10;stroke-width:2px;}.cls-2{fill:#231f20;}</style></defs><g id="Layer_2" data-name="Layer 2"><g id="Layer_1-2" data-name="Layer 1"><circle class="cls-1" cx="189.55" cy="189.55" r="188.55"/><circle class="cls-1" cx="189.55" cy="189.55" r="160.98"/><path class="cls-2" d="M168.42,107.18V212.65H153.55V150.76l-20.87,59.47v.07H117L96.13,150.76v61.89H81.26V107.18H96.57l28.27,80.64,28.27-80.64Z"/><path class="cls-2" d="M212.42,142.18,234,247.73H218.28l-6-29.23H175.43l-14.21,29.23H145.55l51.19-105.55v0h15.68v0Zm-3.15,61.53L201.36,165l-18.75,38.75Z"/><path class="cls-2" d="M295.9,195.23a29.85,29.85,0,0,1-5.5,18.09,28.57,28.57,0,0,1-15,10.47l22.26,46.58h-16.4l-21.46-44.75H242.94v44.75H228.07V164.83h34.58q15.15,0,24.17,8.28T295.9,195.23Zm-33.25,15.52q7.75,0,12.3-2.93Q281,204,281,195.23T275,182.63q-4.54-3-12.3-3H242.94v31.13Z"/></g></g></svg>