<svg id="Layer_1" data-name="Layer 1" xmlns="http://www.w3.org/2000/svg" viewBox="0 0 379.11 379.11"><defs><style>.cls-1{fill:none;stroke:#231f20;stroke-miterlimit:10;stroke-width:2px;}.cls-2,.cls-3{font-size:150px;font-weight:700;}.cls-2,.cls-3,.cls-4{fill:#231f20;}.cls-2{font-family:KayakSans-Bold, Kayak Sans;}.cls-3{font-family:KayakSans-BoldItalic, Kayak Sans;font-style:italic;}</style></defs><circle class="cls-1" cx="189.55" cy="189.55" r="188.55"/><circle class="cls-1" cx="189.55" cy="189.55" r="160.98"/><text class="cls-2" transform="translate(75.4 212.65)">M</text><text class="cls-3" transform="translate(139.69 247.73)">A</text><path class="cls-4" d="M404.93,421a29.91,29.91,0,0,1-5.49,18.09,28.56,28.56,0,0,1-15,10.47l22.27,46.58H390.28l-21.46-44.75H352v44.75H337.11V390.59h34.57q15.17,0,24.17,8.28T404.93,421Zm-33.25,15.52q7.77,0,12.31-2.93,6.08-3.87,6.07-12.59T384,408.39q-4.55-3-12.31-3H352v31.12Z" transform="translate(-109.04 -225.76)"/></svg>